<svg xmlns="http://www.w3.org/2000/svg" xmlns:xlink="http://www.w3.org/1999/xlink" xmlns:lucid="lucid" width="2343" height="1503"><g transform="translate(331.5 -78.5)" lucid:page-tab-id="0_0"><path d="M-500 0h3000v2000H-500z" fill="#fff"/><path d="M1370 845c0 46.94-38.06 85-85 85s-85-38.06-85-85 38.06-85 85-85 85 38.06 85 85z" stroke="#000" stroke-width="3" fill="#fff"/><use xlink:href="#a" transform="matrix(1,0,0,1,1205,765) translate(6.89453125 90.83333333333334)"/><use xlink:href="#b" transform="matrix(1,0,0,1,1205,765) translate(85.05859375 90.83333333333334)"/><path d="M-67 245h284.88" stroke="#3a414a" stroke-width="3" fill="none"/><path d="M-66.96 246.47h-1.58l.04-1.46-.03-1.47h1.57z" stroke="#3a414a" stroke-width=".05" fill="#3a414a"/><path d="M233.65 245l-14.27 4.63v-9.26z" stroke="#3a414a" stroke-width="3" fill="#3a414a"/><path d="M413 245h284.88" stroke="#3a414a" stroke-width="3" fill="none"/><path d="M413.04 246.47h-1.58l.04-1.46-.03-1.47h1.57z" stroke="#3a414a" stroke-width=".05" fill="#3a414a"/><path d="M713.65 245l-14.27 4.63v-9.26z" stroke="#3a414a" stroke-width="3" fill="#3a414a"/><use xlink:href="#c" transform="matrix(1,0,0,1,486.84461805555554,219.48958333333334) translate(0 17.22222222222222)"/><path d="M961.34 246.47H893v-2.94h68.34zm216.54 0h-49.22v-2.94h49.22z" stroke="#3a414a" stroke-width=".05" fill="#3a414a"/><path d="M893.04 246.47h-1.58l.04-1.46-.03-1.47h1.57z" fill="#3a414a"/><path stroke="#3a414a" stroke-width=".05" fill="#3a414a"/><path d="M1193.65 245l-14.27 4.63v-9.26z" fill="#3a414a"/><path d="M1198.42 245l-20.52 6.66v-13.32zm-17.57 2.6l8.02-2.6-8-2.6z" stroke="#3a414a" stroke-width=".05" fill="#3a414a"/><use xlink:href="#d" transform="matrix(1,0,0,1,961.3368055555555,208.43229166666669) translate(0.0049999999999954525 17.22222222222222)"/><use xlink:href="#e" transform="matrix(1,0,0,1,961.3368055555555,208.43229166666669) translate(77.69597222222222 43.034722222222214)"/><use xlink:href="#f" transform="matrix(1,0,0,1,961.3368055555555,208.43229166666669) translate(3.034513888888881 68.84722222222221)"/><path d="M1373 245h284.88" stroke="#3a414a" stroke-width="3" fill="none"/><path d="M1373.04 246.47h-1.58l.04-1.46-.03-1.47h1.57z" stroke="#3a414a" stroke-width=".05" fill="#3a414a"/><path d="M1673.65 245l-14.27 4.63v-9.26z" stroke="#3a414a" stroke-width="3" fill="#3a414a"/><use xlink:href="#g" transform="matrix(1,0,0,1,1450.759548611111,219.48958333333334) translate(0 17.22222222222222)"/><path d="M1850 245c0 46.94-38.06 85-85 85s-85-38.06-85-85 38.06-85 85-85 85 38.06 85 85z" stroke="#000" stroke-width="3" fill="#fff"/><use xlink:href="#h" transform="matrix(1,0,0,1,1685,165) translate(22.212031250000003 70.83333333333334)"/><use xlink:href="#i" transform="matrix(1,0,0,1,1685,165) translate(71.09223958333334 70.83333333333334)"/><use xlink:href="#j" transform="matrix(1,0,0,1,1685,165) translate(53.24067708333333 109.55208333333334)"/><path d="M1686.95 285.67l-305.48 152.75-1.32-2.64 305.48-152.75z" stroke="#3a414a" stroke-width=".05" fill="#3a414a"/><path d="M1687.18 282.82l1.14 2.17-1.4.7-1.32-2.65 1.38-.7z" fill="#3a414a"/><path stroke="#3a414a" stroke-width=".05" fill="#3a414a"/><path d="M1381.54 441.9l-14.83 2.25 10.7-10.53z" fill="#3a414a"/><path d="M1383.77 443.07l-21.33 3.2 15.36-15.12zm-12.8-1.06l8.34-1.24-2.32-4.66zM1520.15 360.93l1-1.18 2.73-1.17 2.88.17 1.24.5 2.25 1.9 1.17 2.73-.16 2.6 138.58 69.3-1.3 2.63-140.94-70.45.73-1.84.1-1.7-.62-1.46-1.33-1.13-.36-.13-1.7-.1-1.46.62-2.03 2.4-56.85-28.43h6.6zm-92.53-46.27h-6.6l-57.96-28.98 1.3-2.64z" stroke="#3a414a" stroke-width=".05" fill="#3a414a"/><path d="M1364.4 283.06l-1.3 2.63-1.4-.7.44-.83.86-1.82z" fill="#3a414a"/><path stroke="#3a414a" stroke-width=".05" fill="#3a414a"/><path d="M1683.3 444.14l-14.85-2.23 4.15-8.28z" fill="#3a414a"/><path d="M1687.56 446.28l-21.33-3.2 5.96-11.94zm-16.88-5.53l8.34 1.26-6-5.9z" stroke="#3a414a" stroke-width=".05" fill="#3a414a"/><use xlink:href="#k" transform="matrix(1,0,0,1,1362.1877813304534,314.66159899856) translate(0 17.22222222222222)"/><path d="M1677 485h-284.88" stroke="#3a414a" stroke-width="3" fill="none"/><path d="M1678.5 485l.03 1.48h-1.57v-2.96h1.58z" stroke="#3a414a" stroke-width=".05" fill="#3a414a"/><path d="M1376.36 485l14.26-4.63v9.26z" stroke="#3a414a" stroke-width="3" fill="#3a414a"/><path d="M1197 485H912.12" stroke="#3a414a" stroke-width="3" fill="none"/><path d="M1198.5 485l.03 1.48h-1.57v-2.96h1.58z" stroke="#3a414a" stroke-width=".05" fill="#3a414a"/><path d="M896.36 485l14.26-4.63v9.26z" stroke="#3a414a" stroke-width="3" fill="#3a414a"/><path d="M717 485H432.12" stroke="#3a414a" stroke-width="3" fill="none"/><path d="M718.5 485l.03 1.48h-1.57v-2.96h1.58z" stroke="#3a414a" stroke-width=".05" fill="#3a414a"/><path d="M416.35 485l14.27-4.63v9.26z" stroke="#3a414a" stroke-width="3" fill="#3a414a"/><use xlink:href="#l" transform="matrix(1,0,0,1,481.33680555555554,459.4895833333333) translate(0 17.22222222222222)"/><path d="M237 485H-47.88" stroke="#3a414a" stroke-width="3" fill="none"/><path d="M238.5 485l.03 1.48h-1.57v-2.96h1.58z" stroke="#3a414a" stroke-width=".05" fill="#3a414a"/><path d="M-63.65 485l14.27-4.63v9.26z" stroke="#3a414a" stroke-width="3" fill="#3a414a"/><use xlink:href="#m" transform="matrix(1,0,0,1,41.01996527777777,459.4895833333333) translate(0 17.22222222222222)"/><path d="M1370 1085c0 46.94-38.06 85-85 85s-85-38.06-85-85 38.06-85 85-85 85 38.06 85 85z" stroke="#000" stroke-width="3" fill="#fff"/><use xlink:href="#n" transform="matrix(1,0,0,1,1205,1005) translate(46.853958333333324 50.833333333333336)"/><use xlink:href="#o" transform="matrix(1,0,0,1,1205,1005) translate(34.54427083333333 89.55208333333334)"/><use xlink:href="#p" transform="matrix(1,0,0,1,1205,1005) translate(52.22505208333333 128.27083333333334)"/><path d="M1370 1325c0 46.94-38.06 85-85 85s-85-38.06-85-85 38.06-85 85-85 85 38.06 85 85z" stroke="#000" stroke-width="3" fill="#fff"/><use xlink:href="#n" transform="matrix(1,0,0,1,1205,1245) translate(46.853958333333324 50.833333333333336)"/><use xlink:href="#q" transform="matrix(1,0,0,1,1205,1245) translate(41.451822916666664 89.55208333333334)"/><use xlink:href="#p" transform="matrix(1,0,0,1,1205,1245) translate(52.22505208333333 128.27083333333334)"/><path d="M-155 573v164.88" stroke="#3a414a" stroke-width="3" fill="none"/><path d="M-155 571.5l1.47-.03v1.57h-2.94v-1.58z" stroke="#3a414a" stroke-width=".05" fill="#3a414a"/><path d="M-155 753.65l-4.63-14.27h9.26z" stroke="#3a414a" stroke-width="3" fill="#3a414a"/><use xlink:href="#r" transform="matrix(1,0,0,1,-256.984375,654.2447916666666) translate(0 17.22222222222222)"/><path d="M1.34 807.44L-69.3 825.1l-.7-2.87L1.34 804.4zm220.1-55.03l-52.78 13.2v-3.04l52.08-13z" stroke="#3a414a" stroke-width=".05" fill="#3a414a"/><path d="M-69.25 825.08l-1.5.38-.7-2.87 1.5-.38z" fill="#3a414a"/><path stroke="#3a414a" stroke-width=".05" fill="#3a414a"/><path d="M236.4 747.15l-12.73 7.96-2.24-8.98z" fill="#3a414a"/><path d="M241.02 746l-18.28 11.44-3.24-12.94zm-16.4 6.78l7.14-4.47-8.4-.57z" stroke="#3a414a" stroke-width=".05" fill="#3a414a"/><use xlink:href="#d" transform="matrix(1,0,0,1,1.336805555555543,748.4322916666666) translate(0.0049999999999954525 17.22222222222222)"/><use xlink:href="#e" transform="matrix(1,0,0,1,1.336805555555543,748.4322916666666) translate(77.69597222222222 43.034722222222214)"/><use xlink:href="#s" transform="matrix(1,0,0,1,1.336805555555543,748.4322916666666) translate(4.115243055555567 68.84722222222221)"/><path d="M221.44 937.6l-.72 2.85-52.06-13v-3.06zM1.34 882.55v3.05l-71.32-17.83.7-2.86z" stroke="#3a414a" stroke-width=".05" fill="#3a414a"/><path d="M-69.23 864.92l-.72 2.86-1.52-.38.6-2.16.13-.7z" fill="#3a414a"/><path stroke="#3a414a" stroke-width=".05" fill="#3a414a"/><path d="M236.37 942.84l-14.96 1.04 2.26-9z" fill="#3a414a"/><path d="M241 944l-21.52 1.5 3.24-12.94zm-17.67-1.73l8.4-.6-7.13-4.46z" stroke="#3a414a" stroke-width=".05" fill="#3a414a"/><use xlink:href="#d" transform="matrix(1,0,0,1,1.336805555555543,868.4322916666666) translate(0.0049999999999954525 17.22222222222222)"/><use xlink:href="#e" transform="matrix(1,0,0,1,1.336805555555543,868.4322916666666) translate(77.69597222222222 43.034722222222214)"/><use xlink:href="#t" transform="matrix(1,0,0,1,1.336805555555543,868.4322916666666) translate(7.127395833333338 68.84722222222221)"/><path d="M410.37 746.34l290.7 72.68" stroke="#3a414a" stroke-width="3" fill="none"/><path d="M410.77 744.92l-.72 2.86-1.52-.38.6-2.16.13-.7z" stroke="#3a414a" stroke-width=".05" fill="#3a414a"/><path d="M716.37 822.84l-14.96 1.04 2.26-9z" stroke="#3a414a" stroke-width="3" fill="#3a414a"/><path d="M410.36 943.66l290.73-72.68" stroke="#3a414a" stroke-width="3" fill="none"/><path d="M410.75 945.08l-1.5.38-.7-2.87 1.5-.38z" stroke="#3a414a" stroke-width=".05" fill="#3a414a"/><path d="M716.4 867.15l-12.73 7.96-2.25-8.98z" stroke="#3a414a" stroke-width="3" fill="#3a414a"/><path d="M893 845h284.88" stroke="#3a414a" stroke-width="3" fill="none"/><path d="M893.04 846.48h-1.58l.04-1.47-.03-1.48h1.57z" stroke="#3a414a" stroke-width=".05" fill="#3a414a"/><path d="M1193.65 845l-14.27 4.63v-9.26z" stroke="#3a414a" stroke-width="3" fill="#3a414a"/><use xlink:href="#l" transform="matrix(1,0,0,1,961.3368055555555,819.4895833333331) translate(0 17.22222222222222)"/><path d="M-70 1205c0 46.94-38.06 85-85 85s-85-38.06-85-85 38.06-85 85-85 85 38.06 85 85z" stroke="#000" stroke-width="3" fill="#fff"/><use xlink:href="#u" transform="matrix(1,0,0,1,-235,1125) translate(3.28125 90.83333333333334)"/><use xlink:href="#v" transform="matrix(1,0,0,1,-235,1125) translate(52.161458333333336 90.83333333333334)"/><use xlink:href="#w" transform="matrix(1,0,0,1,-235,1125) translate(103.19010416666667 90.83333333333334)"/><path d="M1760.17 843.6l1.14.3 1.1.44 1 .6.9.77.75.9.6 1 .46 1.1.3 1.13.07 1.1v246.95h-2.94V851.06l-.07-.77-.16-.7-.27-.65-.37-.6-.46-.55-.54-.46-.6-.37-.66-.27-.7-.17-.76-.05H1373v-2.96h386.06z" stroke="#3a414a" stroke-width=".05" fill="#3a414a"/><path d="M1373.04 846.48h-1.58l.04-1.47-.03-1.48h1.57z" fill="#3a414a"/><path stroke="#3a414a" stroke-width=".05" fill="#3a414a"/><path d="M1765 1113.65l-4.63-14.27h9.27z" fill="#3a414a"/><path d="M1765 1118.42l-6.66-20.52h13.33zm-2.6-17.57l2.6 8.02 2.6-8zM1679.98 1182.23l-.7 2.86-70.62-17.66v-3.05zm-238.64-59.67v3.05l-52.77-13.2.7-2.85z" stroke="#3a414a" stroke-width=".05" fill="#3a414a"/><path d="M1681.47 1182.6l-.6 2.16-.13.7-1.5-.38.7-2.86z" fill="#3a414a"/><path stroke="#3a414a" stroke-width=".05" fill="#3a414a"/><path d="M1386.34 1115.1l-12.7-7.94 14.95-1.04z" fill="#3a414a"/><path d="M1387.28 1117.44L1369 1106l21.52-1.5zm-9.02-9.13l7.14 4.5 1.27-5.07z" stroke="#3a414a" stroke-width=".05" fill="#3a414a"/><use xlink:href="#d" transform="matrix(1,0,0,1,1441.3368055555557,1108.4322916666667) translate(0.0049999999999954525 17.22222222222222)"/><use xlink:href="#e" transform="matrix(1,0,0,1,1441.3368055555557,1108.4322916666667) translate(77.69597222222222 43.034722222222214)"/><use xlink:href="#s" transform="matrix(1,0,0,1,1441.3368055555557,1108.4322916666667) translate(4.115243055555567 68.84722222222221)"/><path d="M1441.34 1287.44l-52.08 13-.7-2.85 52.78-13.2zm238.66-59.67l-71.34 17.84v-3.04l70.63-17.65z" stroke="#3a414a" stroke-width=".05" fill="#3a414a"/><path d="M1681.46 1227.4l-1.5.38-.7-2.86 1.48-.38z" fill="#3a414a"/><path stroke="#3a414a" stroke-width=".05" fill="#3a414a"/><path d="M1388.58 1303.88l-14.97-1.03 12.73-7.96z" fill="#3a414a"/><path d="M1390.5 1305.5l-21.52-1.5 18.3-11.44zm-12.26-3.8l8.4.57-1.25-5.05z" stroke="#3a414a" stroke-width=".05" fill="#3a414a"/><use xlink:href="#d" transform="matrix(1,0,0,1,1441.3368055555557,1228.4322916666667) translate(0.0049999999999954525 17.22222222222222)"/><use xlink:href="#e" transform="matrix(1,0,0,1,1441.3368055555557,1228.4322916666667) translate(77.69597222222222 43.034722222222214)"/><use xlink:href="#t" transform="matrix(1,0,0,1,1441.3368055555557,1228.4322916666667) translate(7.127395833333338 68.84722222222221)"/><path d="M1199.64 1106.34l-290.73 72.68" stroke="#3a414a" stroke-width="3" fill="none"/><path d="M1201.46 1107.4l-1.5.38-.7-2.86 1.48-.38z" stroke="#3a414a" stroke-width=".05" fill="#3a414a"/><path d="M893.6 1182.85l12.73-7.96 2.25 8.98z" stroke="#3a414a" stroke-width="3" fill="#3a414a"/><path d="M1199.63 1303.66l-290.7-72.68" stroke="#3a414a" stroke-width="3" fill="none"/><path d="M1201.47 1302.6l-.6 2.16-.13.7-1.5-.38.7-2.86z" stroke="#3a414a" stroke-width=".05" fill="#3a414a"/><path d="M893.63 1227.16l14.96-1.04-2.26 9z" stroke="#3a414a" stroke-width="3" fill="#3a414a"/><path d="M717 1205H432.12" stroke="#3a414a" stroke-width="3" fill="none"/><path d="M718.5 1205l.03 1.47h-1.57v-2.94h1.58z" stroke="#3a414a" stroke-width=".05" fill="#3a414a"/><path d="M416.35 1205l14.27-4.63v9.27z" stroke="#3a414a" stroke-width="3" fill="#3a414a"/><use xlink:href="#l" transform="matrix(1,0,0,1,481.33680555555554,1179.4895833333335) translate(0 17.22222222222222)"/><path d="M237 1205H-47.88" stroke="#3a414a" stroke-width="3" fill="none"/><path d="M238.5 1205l.03 1.47h-1.57v-2.94h1.58z" stroke="#3a414a" stroke-width=".05" fill="#3a414a"/><path d="M-63.65 1205l14.27-4.63v9.27z" stroke="#3a414a" stroke-width="3" fill="#3a414a"/><use xlink:href="#x" transform="matrix(1,0,0,1,16.24131944444443,1127.8645833333335) translate(12.70031250000001 17.22222222222222)"/><use xlink:href="#e" transform="matrix(1,0,0,1,16.24131944444443,1127.8645833333335) translate(62.791458333333345 43.034722222222214)"/><use xlink:href="#y" transform="matrix(1,0,0,1,16.24131944444443,1127.8645833333335) translate(0.0049999999999954525 68.84722222222221)"/><path d="M1370 245c0 46.94-38.06 85-85 85s-85-38.06-85-85 38.06-85 85-85 85 38.06 85 85z" stroke="#000" stroke-width="3" fill="#fff"/><use xlink:href="#z" transform="matrix(1,0,0,1,1205,165) translate(52.4609375 90.83333333333334)"/><path d="M1206.32 205.57l-3.92-2.18-3.82-2.84-2.87-2.76-2.16-2.72-1.64-2.7-1.2-2.76-.84-2.82-.46-2.94-.08-3.1.34-3.3.83-3.53 1.4-3.72 2.05-3.82 2.7-3.8 3.3-3.55 3.7-3.07 3.85-2.45 3.83-1.77 3.68-1.17 3.48-.62 3.28-.16 3.1.25 2.98.64 2.9 1.02 1.88.95" stroke="#3a414a" stroke-width="3" stroke-linejoin="round" fill="none"/><path d="M1208.3 205l-.44.83-.86 1.8-1.43-.8 1.44-2.57z" stroke="#3a414a" stroke-width=".05" fill="#3a414a"/><path d="M1243.06 164.04l-13.05-7.38 6.84-6.27z" stroke="#3a414a" stroke-width="3" fill="#3a414a"/><path d="M1280.17 358.6l1.14.3 1.1.44 1 .6.9.77.75.9.6 1 .46 1.1.3 1.13.07 1.1v11.95h-2.94v-11.82l-.07-.77-.16-.7-.27-.65-.37-.6-.46-.55-.54-.46-.6-.37-.66-.27-.7-.16-.76-.06H-43.94l-.77.06-.7.16-.65.27-.6.37-.55.46-.46.54-.37.6-.27.66-.17.7-.05.76v706.38l.05.77.17.7.27.65.37.6.46.55.54.46.6.37.66.27.7.16.76.07h363l1.1.08 1.15.3 1.1.43 1 .62.9.76.75.9.6 1 .46 1.1.3 1.13.08 1.1V1117h-2.96v-32.44l-.06-.77-.16-.7-.27-.65-.37-.6-.46-.55-.54-.46-.6-.37-.66-.27-.7-.16-.76-.07h-363l-1.1-.08-1.15-.3-1.1-.44-1-.6-.9-.77-.75-.9-.6-1-.46-1.1-.3-1.13-.08-1.1V365.93l.1-1.1.27-1.15.44-1.1.6-1 .77-.9.9-.75 1-.6 1.1-.46 1.13-.3 1.1-.08h1323.13z" stroke="#3a414a" stroke-width=".05" fill="#3a414a"/><path d="M326.48 1118.54l-1.47-.04-1.48.03v-1.57h2.96z" fill="#3a414a"/><path stroke="#3a414a" stroke-width=".05" fill="#3a414a"/><path d="M1285 393.65l-4.63-14.27h9.27z" fill="#3a414a"/><path d="M1285 398.42l-6.66-20.52h13.33zm-2.6-17.56l2.6 8 2.6-8z" stroke="#3a414a" stroke-width=".05" fill="#3a414a"/><use xlink:href="#f" transform="matrix(1,0,0,1,481.580157915246,334.4895833333333) translate(0 17.22222222222222)"/><path d="M1915.17 243.6l1.14.3 1.1.44 1 .6.9.77.75.9.6 1 .46 1.1.3 1.13.07 1.1v1233.13l-.08 1.1-.3 1.15-.44 1.1-.6 1-.77.9-.9.75-1 .6-1.1.46-1.13.3-1.1.07H330.93l-1.1-.08-1.15-.3-1.1-.44-1-.6-.9-.77-.75-.9-.6-1-.46-1.1-.3-1.13-.08-1.1V1293h2.96v190.94l.06.77.16.7.27.65.37.6.46.55.54.46.6.37.66.27.7.16.76.07h1582.88l.77-.07.7-.16.65-.27.6-.37.55-.46.46-.54.37-.6.27-.66.16-.7.07-.76V251.06l-.07-.77-.16-.7-.27-.65-.37-.6-.46-.55-.54-.46-.6-.37-.66-.27-.7-.16-.76-.06h-41.82v-2.95h41.94z" stroke="#3a414a" stroke-width=".05" fill="#3a414a"/><path d="M325 1291.5l1.48-.03v1.57h-2.96v-1.58z" fill="#3a414a"/><path stroke="#3a414a" stroke-width=".05" fill="#3a414a"/><path d="M1870.62 249.63l-14.27-4.63 14.27-4.63z" fill="#3a414a"/><path d="M1872.1 251.66l-20.52-6.66 20.52-6.66zm-10.97-6.66l8 2.6v-5.2z" stroke="#3a414a" stroke-width=".05" fill="#3a414a"/><use xlink:href="#A" transform="matrix(1,0,0,1,464.60625509734814,1464.4895833333335) translate(0 17.22222222222222)"/><use xlink:href="#B" transform="matrix(1,0,0,1,464.60625509734814,1464.4895833333335) translate(171.50173611111114 17.22222222222222)"/><use xlink:href="#C" transform="matrix(1,0,0,1,464.60625509734814,1464.4895833333335) translate(187.65625000000003 17.22222222222222)"/><use xlink:href="#D" transform="matrix(1,0,0,1,464.60625509734814,1464.4895833333335) translate(340.17361111111114 17.22222222222222)"/><use xlink:href="#E" transform="matrix(1,0,0,1,464.60625509734814,1464.4895833333335) translate(356.32812500000006 17.22222222222222)"/><path d="M1370 485c0 46.94-38.06 85-85 85s-85-38.06-85-85 38.06-85 85-85 85 38.06 85 85z" stroke="#000" stroke-width="3" fill="#fff"/><use xlink:href="#F" transform="matrix(1,0,0,1,1205,405.00000000000006) translate(44.22374999999999 70.83333333333334)"/><use xlink:href="#G" transform="matrix(1,0,0,1,1205,405.00000000000006) translate(8.422968750000004 109.55208333333334)"/><path d="M1850 485c0 46.94-38.06 85-85 85s-85-38.06-85-85 38.06-85 85-85 85 38.06 85 85z" stroke="#000" stroke-width="3" fill="#fff"/><use xlink:href="#H" transform="matrix(1,0,0,1,1685,405) translate(9.523229166666662 70.83333333333334)"/><use xlink:href="#i" transform="matrix(1,0,0,1,1685,405) translate(83.78104166666667 70.83333333333334)"/><use xlink:href="#j" transform="matrix(1,0,0,1,1685,405) translate(53.24067708333333 109.55208333333334)"/><path d="M1922.16 478.86l3.13 2.28.77 2.38h68l1.1.1 1.14.27 1.1.44 1 .6.9.77.75.9.6 1 .46 1.1.3 1.13.07 1.1v1073.13l-.08 1.1-.3 1.15-.44 1.1-.6 1-.77.9-.9.75-1 .6-1.1.46-1.13.3-1.1.07H-149.07l-1.1-.08-1.15-.3-1.1-.44-1-.6-.9-.77-.75-.9-.6-1-.46-1.1-.3-1.13-.07-1.1V1293h2.94v270.94l.06.77.17.7.27.65.37.6.46.55.54.46.6.37.66.27.7.16.76.07h2142.88l.77-.07.7-.16.65-.27.6-.37.55-.46.46-.54.37-.6.27-.66.16-.7.07-.76V491.06l-.07-.77-.16-.7-.27-.65-.37-.6-.46-.55-.54-.46-.6-.37-.66-.27-.7-.16-.76-.06h-70l-1.16-3.52-1.78-1.3-.88-.15-2.16.72-1.3 1.78-.4 2.48h-44.14v-2.96h41.62l.12-.68 2.28-3.13 3.74-1.2z" stroke="#3a414a" stroke-width=".05" fill="#3a414a"/><path d="M-155 1291.5l1.47-.03v1.57h-2.94v-1.58z" fill="#3a414a"/><path stroke="#3a414a" stroke-width=".05" fill="#3a414a"/><path d="M1870.62 489.63l-14.27-4.63 14.27-4.63z" fill="#3a414a"/><path d="M1872.1 491.67l-20.52-6.67 20.52-6.67zm-10.97-6.67l8 2.6v-5.2z" stroke="#3a414a" stroke-width=".05" fill="#3a414a"/><use xlink:href="#k" transform="matrix(1,0,0,1,465.869528743999,1544.4895833333335) translate(0 17.22222222222222)"/><path d="M410 1205c0 46.94-38.06 85-85 85s-85-38.06-85-85 38.06-85 85-85 85 38.06 85 85z" stroke="#000" stroke-width="3" fill="#fff"/><use xlink:href="#I" transform="matrix(1,0,0,1,245,1125) translate(52.465937499999995 50.833333333333336)"/><use xlink:href="#J" transform="matrix(1,0,0,1,245,1125) translate(33.111979166666664 89.55208333333334)"/><use xlink:href="#K" transform="matrix(1,0,0,1,245,1125) translate(33.1690625 128.27083333333334)"/><path d="M246.32 1165.57l-3.92-2.18-3.82-2.84-2.87-2.76-2.16-2.72-1.64-2.7-1.2-2.76-.84-2.82-.46-2.94-.08-3.1.34-3.3.83-3.53 1.4-3.72 2.05-3.82 2.7-3.8 3.3-3.55 3.7-3.07 3.85-2.45 3.82-1.77 3.7-1.17 3.47-.62 3.26-.16 3.1.25 2.98.64 2.9 1.02 1.88.95" stroke="#3a414a" stroke-width="3" stroke-linejoin="round" fill="none"/><path d="M248.3 1165l-.45.83-.85 1.8-1.43-.8 1.44-2.57z" stroke="#3a414a" stroke-width=".05" fill="#3a414a"/><path d="M283.06 1124.05l-13.05-7.4 6.84-6.26z" stroke="#3a414a" stroke-width="3" fill="#3a414a"/><path d="M890 1205c0 46.94-38.06 85-85 85s-85-38.06-85-85 38.06-85 85-85 85 38.06 85 85z" stroke="#000" stroke-width="3" fill="#fff"/><use xlink:href="#L" transform="matrix(1,0,0,1,725,1125) translate(16.53494791666666 70.83333333333334)"/><use xlink:href="#M" transform="matrix(1,0,0,1,725,1125) translate(87.91515625000001 70.83333333333334)"/><use xlink:href="#N" transform="matrix(1,0,0,1,725,1125) translate(50.80578124999999 109.55208333333334)"/><path d="M726.32 1165.57l-3.92-2.18-3.82-2.84-2.87-2.76-2.16-2.72-1.64-2.7-1.2-2.76-.84-2.82-.46-2.94-.08-3.1.34-3.3.83-3.53 1.4-3.72 2.05-3.82 2.7-3.8 3.3-3.55 3.7-3.07 3.85-2.45 3.83-1.77 3.67-1.17 3.5-.62 3.26-.16 3.1.25 2.98.64 2.9 1.02 1.88.95" stroke="#3a414a" stroke-width="3" stroke-linejoin="round" fill="none"/><path d="M728.3 1165l-.44.83-.86 1.8-1.43-.8 1.43-2.57z" stroke="#3a414a" stroke-width=".05" fill="#3a414a"/><path d="M763.06 1124.05l-13.05-7.4 6.84-6.26z" stroke="#3a414a" stroke-width="3" fill="#3a414a"/><path d="M1850 1205c0 46.94-38.06 85-85 85s-85-38.06-85-85 38.06-85 85-85 85 38.06 85 85z" stroke="#000" stroke-width="3" fill="#fff"/><use xlink:href="#L" transform="matrix(1,0,0,1,1685,1125) translate(16.53494791666666 70.83333333333334)"/><use xlink:href="#M" transform="matrix(1,0,0,1,1685,1125) translate(87.91515625000001 70.83333333333334)"/><use xlink:href="#O" transform="matrix(1,0,0,1,1685,1125) translate(53.80057291666666 109.55208333333334)"/><path d="M1810.32 1129.58l2.4-3.4 3.07-3.4 2.9-2.58 2.83-1.93 2.75-1.45 2.72-1.05 2.74-.7 2.8-.36 2.87-.02 3 .3 3.1.72 3.26 1.16 3.36 1.66 3.4 2.2 3.32 2.78 3.07 3.23 2.68 3.58 2.15 3.73 1.6 3.7 1.05 3.57.58 3.36.17 3.15-.2 2.95-.5 2.78-.82 2.63-1.1 2.5-1.46 2.46-.15.2" stroke="#3a414a" stroke-width="3" stroke-linejoin="round" fill="none"/><path d="M1811.55 1130.4l-.85 1.2-2.08-1.3-.44-.25.95-1.35z" stroke="#3a414a" stroke-width=".05" fill="#3a414a"/><path d="M1849.4 1170.42l8.8-12.15 5.45 7.5z" stroke="#3a414a" stroke-width="3" fill="#3a414a"/><path d="M1280.17 78.6l1.14.3 1.1.44 1 .6.9.77.75.9.6 1 .46 1.1.3 1.13.07 1.1v51.95h-2.94V86.06l-.07-.77-.16-.7-.27-.65-.37-.6-.46-.55-.54-.46-.6-.37-.66-.27-.7-.17-.76-.06H-323.94l-.77.06-.7.17-.65.27-.6.37-.55.46-.46.54-.37.6-.27.66-.16.7-.06.76v1112.88l.06.77.16.7.27.65.37.6.46.55.54.46.6.37.66.27.7.16.76.07H-243v2.94h-81.06l-1.1-.08-1.15-.3-1.1-.44-1-.6-.9-.77-.75-.9-.6-1-.46-1.1-.3-1.13-.08-1.1V85.93l.1-1.1.27-1.15.44-1.1.6-1 .77-.9.9-.75 1-.6 1.1-.46 1.13-.3 1.1-.07h1603.13z" stroke="#3a414a" stroke-width=".05" fill="#3a414a"/><path d="M-241.5 1205l.03 1.47h-1.57v-2.94h1.58z" fill="#3a414a"/><path stroke="#3a414a" stroke-width=".05" fill="#3a414a"/><path d="M1285 153.65l-4.63-14.27h9.27z" fill="#3a414a"/><path d="M1285 158.42l-6.66-20.5h13.33zm-2.6-17.56l2.6 8 2.6-8z" stroke="#3a414a" stroke-width=".05" fill="#3a414a"/><path d="M890 845c0 46.94-38.06 85-85 85s-85-38.06-85-85 38.06-85 85-85 85 38.06 85 85z" stroke="#000" stroke-width="3" fill="#fff"/><use xlink:href="#P" transform="matrix(1,0,0,1,725,764.9999999999999) translate(9.251302083333314 90.83333333333334)"/><use xlink:href="#Q" transform="matrix(1,0,0,1,725,764.9999999999999) translate(79.92838541666666 90.83333333333334)"/><path d="M850.32 769.58l2.4-3.4 3.07-3.4 2.9-2.58 2.82-1.94 2.76-1.44 2.72-1.05 2.74-.7 2.8-.36 2.87-.02 3 .32 3.1.7 3.26 1.16 3.36 1.66 3.4 2.22 3.32 2.76 3.07 3.24 2.68 3.57 2.15 3.73 1.6 3.7 1.05 3.56.58 3.36.17 3.15-.2 2.95-.5 2.77-.8 2.63-1.14 2.52-1.46 2.45-.15.2" stroke="#3a414a" stroke-width="3" stroke-linejoin="round" fill="none"/><path d="M851.55 770.4l-.84 1.2-2.08-1.3-.44-.25.96-1.35z" stroke="#3a414a" stroke-width=".05" fill="#3a414a"/><path d="M889.4 810.42l8.8-12.15 5.45 7.5z" stroke="#3a414a" stroke-width="3" fill="#3a414a"/><path d="M410 965c0 46.94-38.06 85-85 85s-85-38.06-85-85 38.06-85 85-85 85 38.06 85 85z" stroke="#000" stroke-width="3" fill="#fff"/><use xlink:href="#n" transform="matrix(1,0,0,1,245,885) translate(46.853958333333324 50.833333333333336)"/><use xlink:href="#q" transform="matrix(1,0,0,1,245,885) translate(41.451822916666664 89.55208333333334)"/><use xlink:href="#R" transform="matrix(1,0,0,1,245,885) translate(54.93338541666666 128.27083333333334)"/><path d="M410 725c0 46.94-38.06 85-85 85s-85-38.06-85-85 38.06-85 85-85 85 38.06 85 85z" stroke="#000" stroke-width="3" fill="#fff"/><g><use xlink:href="#n" transform="matrix(1,0,0,1,245,645) translate(46.853958333333324 50.833333333333336)"/><use xlink:href="#o" transform="matrix(1,0,0,1,245,645) translate(34.54427083333333 89.55208333333334)"/><use xlink:href="#R" transform="matrix(1,0,0,1,245,645) translate(54.93338541666666 128.27083333333334)"/></g><path d="M-70 845c0 46.94-38.06 85-85 85s-85-38.06-85-85 38.06-85 85-85 85 38.06 85 85z" stroke="#000" stroke-width="3" fill="#fff"/><g><use xlink:href="#L" transform="matrix(1,0,0,1,-235,765) translate(19.24328124999999 70.83333333333334)"/><use xlink:href="#S" transform="matrix(1,0,0,1,-235,765) translate(90.62348958333334 70.83333333333334)"/><use xlink:href="#O" transform="matrix(1,0,0,1,-235,765) translate(53.80057291666666 109.55208333333334)"/></g><path d="M-233.68 805.57l-3.92-2.18-3.82-2.84-2.87-2.76-2.16-2.72-1.64-2.7-1.2-2.76-.84-2.82-.46-2.94-.08-3.1.34-3.3.83-3.53 1.4-3.7 2.05-3.85 2.7-3.8 3.3-3.55 3.7-3.07 3.85-2.45 3.82-1.77 3.7-1.17 3.47-.62 3.26-.16 3.1.25 2.98.64 2.9 1.02 1.88.95" stroke="#3a414a" stroke-width="3" stroke-linejoin="round" fill="none"/><path d="M-231.7 805l-.45.83-.85 1.8-1.43-.8 1.44-2.57z" stroke="#3a414a" stroke-width=".05" fill="#3a414a"/><path d="M-196.94 764.04l-13.05-7.38 6.84-6.27z" stroke="#3a414a" stroke-width="3" fill="#3a414a"/><path d="M410 485c0 46.94-38.06 85-85 85s-85-38.06-85-85 38.06-85 85-85 85 38.06 85 85z" stroke="#000" stroke-width="3" fill="#fff"/><g><use xlink:href="#T" transform="matrix(1,0,0,1,245,405) translate(36.69921874999999 90.83333333333334)"/><use xlink:href="#U" transform="matrix(1,0,0,1,245,405) translate(106.47786458333334 90.83333333333334)"/></g><path d="M246.32 445.57l-3.92-2.18-3.82-2.84-2.87-2.76-2.16-2.72-1.64-2.7-1.2-2.76-.84-2.82-.46-2.94-.08-3.1.34-3.3.83-3.53 1.4-3.72 2.05-3.82 2.7-3.8 3.3-3.55 3.7-3.07 3.85-2.45 3.82-1.77 3.7-1.17 3.47-.62 3.26-.16 3.1.25 2.98.64 2.9 1.02 1.88.95" stroke="#3a414a" stroke-width="3" stroke-linejoin="round" fill="none"/><path d="M248.3 445l-.45.83-.85 1.8-1.43-.8 1.44-2.57z" stroke="#3a414a" stroke-width=".05" fill="#3a414a"/><path d="M283.06 404.05l-13.05-7.4 6.84-6.26z" stroke="#3a414a" stroke-width="3" fill="#3a414a"/><path d="M-70 485c0 46.94-38.06 85-85 85s-85-38.06-85-85 38.06-85 85-85 85 38.06 85 85z" stroke="#000" stroke-width="3" fill="#fff"/><g><use xlink:href="#T" transform="matrix(1,0,0,1,-235,405) translate(39.68749999999999 90.83333333333334)"/><use xlink:href="#V" transform="matrix(1,0,0,1,-235,405) translate(109.46614583333334 90.83333333333334)"/></g><path d="M-233.68 445.57l-3.92-2.18-3.82-2.84-2.87-2.76-2.16-2.72-1.64-2.7-1.2-2.76-.84-2.82-.46-2.94-.08-3.1.34-3.3.83-3.53 1.4-3.72 2.05-3.82 2.7-3.8 3.3-3.55 3.7-3.07 3.85-2.45 3.82-1.77 3.7-1.17 3.47-.62 3.26-.16 3.1.25 2.98.64 2.9 1.02 1.88.95" stroke="#3a414a" stroke-width="3" stroke-linejoin="round" fill="none"/><path d="M-231.7 445l-.45.83-.85 1.8-1.43-.8 1.44-2.57z" stroke="#3a414a" stroke-width=".05" fill="#3a414a"/><path d="M-196.94 404.05l-13.05-7.4 6.84-6.26z" stroke="#3a414a" stroke-width="3" fill="#3a414a"/><path d="M890 485c0 46.94-38.06 85-85 85s-85-38.06-85-85 38.06-85 85-85 85 38.06 85 85z" stroke="#000" stroke-width="3" fill="#fff"/><g><use xlink:href="#W" transform="matrix(1,0,0,1,725,405) translate(39.36697916666666 70.83333333333334)"/><use xlink:href="#G" transform="matrix(1,0,0,1,725,405) translate(8.422968750000004 109.55208333333334)"/></g><path d="M726.32 445.57l-3.92-2.18-3.82-2.84-2.87-2.76-2.16-2.72-1.64-2.7-1.2-2.76-.84-2.82-.46-2.94-.08-3.1.34-3.3.83-3.53 1.4-3.72 2.05-3.82 2.7-3.8 3.3-3.55 3.7-3.07 3.85-2.45 3.83-1.77 3.67-1.17 3.5-.62 3.26-.16 3.1.25 2.98.64 2.9 1.02 1.88.95" stroke="#3a414a" stroke-width="3" stroke-linejoin="round" fill="none"/><path d="M728.3 445l-.44.83-.86 1.8-1.43-.8 1.43-2.57z" stroke="#3a414a" stroke-width=".05" fill="#3a414a"/><path d="M763.06 404.05l-13.05-7.4 6.84-6.26z" stroke="#3a414a" stroke-width="3" fill="#3a414a"/><path d="M410 245c0 46.94-38.06 85-85 85s-85-38.06-85-85 38.06-85 85-85 85 38.06 85 85z" stroke="#000" stroke-width="3" fill="#fff"/><g><use xlink:href="#P" transform="matrix(1,0,0,1,245,165) translate(9.251302083333314 90.83333333333334)"/><use xlink:href="#Q" transform="matrix(1,0,0,1,245,165) translate(79.92838541666666 90.83333333333334)"/></g><path d="M246.32 205.57l-3.92-2.18-3.82-2.84-2.87-2.76-2.16-2.72-1.64-2.7-1.2-2.76-.84-2.82-.46-2.94-.08-3.1.34-3.3.83-3.53 1.4-3.72 2.05-3.82 2.7-3.8 3.3-3.55 3.7-3.07 3.85-2.45 3.82-1.77 3.7-1.17 3.47-.62 3.26-.16 3.1.25 2.98.64 2.9 1.02 1.88.95" stroke="#3a414a" stroke-width="3" stroke-linejoin="round" fill="none"/><path d="M248.3 205l-.45.83-.85 1.8-1.43-.8 1.44-2.57z" stroke="#3a414a" stroke-width=".05" fill="#3a414a"/><path d="M283.06 164.04L270 156.66l6.84-6.27z" stroke="#3a414a" stroke-width="3" fill="#3a414a"/><path d="M-70 245c0 46.94-38.06 85-85 85s-85-38.06-85-85 38.06-85 85-85 85 38.06 85 85z" stroke="#000" stroke-width="3" fill="#fff"/><g><use xlink:href="#X" transform="matrix(1,0,0,1,-235,165) translate(41.575520833333336 90.83333333333334)"/></g><path d="M890 245c0 46.94-38.06 85-85 85s-85-38.06-85-85 38.06-85 85-85 85 38.06 85 85z" stroke="#000" stroke-width="3" fill="#fff"/><g><use xlink:href="#Y" transform="matrix(1,0,0,1,725,165) translate(44.672968749999995 70.83333333333334)"/><use xlink:href="#Z" transform="matrix(1,0,0,1,725,165) translate(28.475052083333324 109.55208333333334)"/></g><path d="M726.32 205.57l-3.92-2.18-3.82-2.84-2.87-2.76-2.16-2.72-1.64-2.7-1.2-2.76-.84-2.82-.46-2.94-.08-3.1.34-3.3.83-3.53 1.4-3.72 2.05-3.82 2.7-3.8 3.3-3.55 3.7-3.07 3.85-2.45 3.83-1.77 3.67-1.17 3.5-.62 3.26-.16 3.1.25 2.98.64 2.9 1.02 1.88.95" stroke="#3a414a" stroke-width="3" stroke-linejoin="round" fill="none"/><path d="M728.3 205l-.44.83-.86 1.8-1.43-.8 1.43-2.57z" stroke="#3a414a" stroke-width=".05" fill="#3a414a"/><path d="M763.06 164.04L750 156.66l6.84-6.27z" stroke="#3a414a" stroke-width="3" fill="#3a414a"/><defs><path d="M180 0v-1490h510c348 0 508 194 508 460 0 198-88 351-276 417L1256 0h-220L726-579c-117 2-238 0-356 1V0H180zm190-747h312c235 0 327-108 327-283 0-177-92-293-329-293H370v576" id="aa"/><path d="M628 24c-324 0-524-230-524-574 0-343 198-582 503-582 237 0 487 146 487 559v75H286c9 234 145 362 343 362 132 0 231-58 273-172l174 48C1024-91 857 24 628 24zM287-650h624c-17-190-120-322-304-322-192 0-309 151-320 322" id="ab"/><path d="M538 24C308 24 148-78 108-271l171-41c32 123 123 178 257 178 156 0 256-77 256-169 0-77-54-128-164-154l-186-44c-203-48-300-148-300-305 0-192 176-326 414-326 230 0 351 112 402 269l-163 42c-31-80-94-158-238-158-133 0-233 69-233 162 0 83 57 129 188 160l169 40c203 48 298 149 298 302 0 196-179 339-441 339" id="ac"/><path d="M598-1118v154H368v674c0 100 37 144 132 144 23 0 62-6 92-12L629-6c-37 13-88 20-134 20-193 0-307-107-307-290v-688H20v-154h168v-266h180v266h230" id="ad"/><g id="a"><use transform="matrix(0.013020833333333334,0,0,0.013020833333333334,0,0)" xlink:href="#aa"/><use transform="matrix(0.013020833333333334,0,0,0.013020833333333334,16.770833333333336,0)" xlink:href="#ab"/><use transform="matrix(0.013020833333333334,0,0,0.013020833333333334,32.317708333333336,0)" xlink:href="#ac"/><use transform="matrix(0.013020833333333334,0,0,0.013020833333333334,46.39322916666667,0)" xlink:href="#ab"/><use transform="matrix(0.013020833333333334,0,0,0.013020833333333334,61.94010416666667,0)" xlink:href="#ad"/></g><path d="M657 26c-323 0-524-166-541-416h195c15 169 171 246 346 246 202 0 356-106 356-265 5-203-294-238-475-293-239-73-380-191-380-389 0-252 224-419 512-419 294 0 499 171 508 396H992c-17-145-151-228-328-228-193 0-321 102-321 242 0 156 175 211 284 241l149 41c160 44 422 134 422 412 0 244-197 432-541 432" id="ae"/><path d="M338-670V0H158v-1490h180v566c73-149 190-208 336-208 226 0 379 139 379 422V0H872v-695c0-172-96-275-252-275-161 0-282 109-282 300" id="af"/><path d="M613 24c-304 0-509-231-509-576 0-350 205-580 509-580 305 0 511 230 511 580 0 345-206 576-511 576zm0-161c226 0 329-195 329-415 0-222-103-419-329-419-223 0-326 196-326 419 0 220 103 415 326 415" id="ag"/><path d="M158 0v-1118h174v172h12c41-113 157-188 290-188 26 0 70 2 91 3v181c-11-2-60-10-108-10-161 0-279 109-279 260V0H158" id="ah"/><g id="b"><use transform="matrix(0.013020833333333334,0,0,0.013020833333333334,0,0)" xlink:href="#ae"/><use transform="matrix(0.013020833333333334,0,0,0.013020833333333334,17.109375,0)" xlink:href="#af"/><use transform="matrix(0.013020833333333334,0,0,0.013020833333333334,32.87760416666667,0)" xlink:href="#ag"/><use transform="matrix(0.013020833333333334,0,0,0.013020833333333334,48.86718750000001,0)" xlink:href="#ah"/><use transform="matrix(0.013020833333333334,0,0,0.013020833333333334,59.32291666666667,0)" xlink:href="#ad"/></g><path fill="#333" d="M135 0v-1490h305v1237h643V0H135" id="ai"/><path fill="#333" d="M789 20C394 20 94-260 94-744c0-487 300-766 695-766s695 279 695 766c0 485-300 764-695 764zm0-271c231 0 385-174 385-493 0-321-154-495-385-495s-385 175-385 495c0 319 154 493 385 493" id="aj"/><path fill="#333" d="M135 0v-1490h340l471 754c59 97 122 210 187 365-32-387-14-721-19-1119h312V0h-341C855-382 627-689 427-1113c32 420 16 695 20 1113H135" id="ak"/><path fill="#333" d="M795 20C377 20 94-272 94-743c0-483 302-767 694-767 335 0 593 206 635 500h-310c-42-142-154-229-320-229-230 0-389 177-389 493s154 495 393 495c212 0 340-120 345-311H818v-232h620v186c0 391-269 628-643 628" id="al"/><path fill="#333" d="M975 0v231H0V0h975" id="am"/><path fill="#333" d="M659 0H135v-1490h529c448 0 721 280 721 744 0 466-273 746-726 746zM440-263h204c287 0 437-148 437-483 0-333-150-481-435-481H440v964" id="an"/><path fill="#333" d="M135 0v-1490h997v253H440v360h640v249H440v375h694V0H135" id="ao"/><path fill="#333" d="M49 0l509-1490h400L1480 0h-339l-115-346H497L386 0H49zm524-585h374c-75-213-124-402-192-666-66 268-110 453-182 666" id="ap"/><path fill="#333" d="M601 0v-560L49-1490h357l252 464c38 68 67 130 97 208 96-243 225-446 337-672h356L905-560V0H601" id="aq"/><path fill="#333" d="M681 22C323 22 94-145 85-462h297c10 151 131 226 296 226 163 0 271-77 271-190 0-102-95-149-257-189l-164-41c-252-61-403-188-403-405 0-269 236-449 560-449 330 0 546 183 551 445H941c-11-119-106-188-259-188-156 0-244 72-244 172-3 156 226 185 373 221 250 61 445 186 445 436 0 271-213 446-575 446" id="ar"/><path fill="#333" d="M449 0L49-1490h333c89 395 194 758 253 1185 65-426 176-790 269-1185h317c93 394 201 758 268 1181 60-425 164-788 253-1181h334L1675 0h-348c-90-376-204-711-266-1118C1004-714 886-373 798 0H449" id="as"/><g id="c"><use transform="matrix(0.008680555555555556,0,0,0.008680555555555556,0,0)" xlink:href="#ai"/><use transform="matrix(0.008680555555555556,0,0,0.008680555555555556,9.54861111111111,0)" xlink:href="#aj"/><use transform="matrix(0.008680555555555556,0,0,0.008680555555555556,23.24652777777778,0)" xlink:href="#ak"/><use transform="matrix(0.008680555555555556,0,0,0.008680555555555556,36.796875,0)" xlink:href="#al"/><use transform="matrix(0.008680555555555556,0,0,0.008680555555555556,50.138888888888886,0)" xlink:href="#am"/><use transform="matrix(0.008680555555555556,0,0,0.008680555555555556,59.201388888888886,0)" xlink:href="#an"/><use transform="matrix(0.008680555555555556,0,0,0.008680555555555556,72.03993055555556,0)" xlink:href="#ao"/><use transform="matrix(0.008680555555555556,0,0,0.008680555555555556,82.83854166666667,0)" xlink:href="#ai"/><use transform="matrix(0.008680555555555556,0,0,0.008680555555555556,92.890625,0)" xlink:href="#ap"/><use transform="matrix(0.008680555555555556,0,0,0.008680555555555556,104.765625,0)" xlink:href="#aq"/><use transform="matrix(0.008680555555555556,0,0,0.008680555555555556,117.76041666666667,0)" xlink:href="#am"/><use transform="matrix(0.008680555555555556,0,0,0.008680555555555556,126.22395833333334,0)" xlink:href="#ar"/><use transform="matrix(0.008680555555555556,0,0,0.008680555555555556,137.86458333333334,0)" xlink:href="#as"/></g><path fill="#333" d="M135 0v-1490h305v602h649v-602h306V0h-306v-635H440V0H135" id="at"/><path fill="#333" d="M135 0v-1490h581c339 0 533 192 533 485 0 204-94 351-264 424L1302 0H964L680-532H440V0H135zm305-779h220c186 0 274-77 274-226 0-150-88-233-275-233H440v459" id="au"/><path fill="#333" d="M75-1237v-253h1217v253H837V0H531v-1237H75" id="av"/><g id="d"><use transform="matrix(0.008680555555555556,0,0,0.008680555555555556,0,0)" xlink:href="#ar"/><use transform="matrix(0.008680555555555556,0,0,0.008680555555555556,11.640625,0)" xlink:href="#at"/><use transform="matrix(0.008680555555555556,0,0,0.008680555555555556,24.921875,0)" xlink:href="#aj"/><use transform="matrix(0.008680555555555556,0,0,0.008680555555555556,38.61979166666667,0)" xlink:href="#au"/><use transform="matrix(0.008680555555555556,0,0,0.008680555555555556,50.29513888888889,0)" xlink:href="#av"/><use transform="matrix(0.008680555555555556,0,0,0.008680555555555556,61.15451388888889,0)" xlink:href="#am"/><use transform="matrix(0.008680555555555556,0,0,0.008680555555555556,70.2170138888889,0)" xlink:href="#an"/><use transform="matrix(0.008680555555555556,0,0,0.008680555555555556,83.05555555555557,0)" xlink:href="#ao"/><use transform="matrix(0.008680555555555556,0,0,0.008680555555555556,93.85416666666669,0)" xlink:href="#ai"/><use transform="matrix(0.008680555555555556,0,0,0.008680555555555556,103.90625000000001,0)" xlink:href="#ap"/><use transform="matrix(0.008680555555555556,0,0,0.008680555555555556,115.78125000000001,0)" xlink:href="#aq"/><use transform="matrix(0.008680555555555556,0,0,0.008680555555555556,128.77604166666669,0)" xlink:href="#am"/><use transform="matrix(0.008680555555555556,0,0,0.008680555555555556,137.23958333333334,0)" xlink:href="#ar"/><use transform="matrix(0.008680555555555556,0,0,0.008680555555555556,148.88020833333334,0)" xlink:href="#as"/></g><path fill="#333" d="M579 22C270 22 81-162 81-393c0-177 110-281 274-393-80-101-143-210-143-345 0-213 160-377 403-377 238 0 385 158 385 351 0 138-76 251-198 340l-89 64 251 289c39-73 63-161 63-258h251c0 203-53 358-134 465L1367 0h-316l-91-101C852-17 708 22 579 22zm-69-628c-83 57-139 119-136 201 0 113 86 185 214 185 72 0 145-22 210-63zm56-319c74-50 193-114 190-218 0-69-50-123-139-123s-146 55-146 138c0 67 36 129 95 203" id="aw"/><use transform="matrix(0.008680555555555556,0,0,0.008680555555555556,0,0)" xlink:href="#aw" id="e"/><path fill="#333" d="M135 0v-1490h980v253H440v416h609v249H440V0H135" id="ax"/><path fill="#333" d="M786 20C389 20 94-260 94-744c0-487 299-766 692-766 339 0 597 194 641 529h-309c-28-162-156-258-326-258-233 0-388 179-388 495 0 323 157 493 387 493 170 0 298-97 328-259h309c-34 277-266 530-642 530" id="ay"/><path fill="#333" d="M135 0v-1490h468l242 684c30 94 76 293 111 455 34-161 80-360 110-455l238-684h470V0h-307c0-447-3-765 11-1227-122 503-246 788-395 1227H826C676-435 552-717 427-1215c15 453 11 775 11 1215H135" id="az"/><g id="f"><use transform="matrix(0.008680555555555556,0,0,0.008680555555555556,0,0)" xlink:href="#ax"/><use transform="matrix(0.008680555555555556,0,0,0.008680555555555556,10.434027777777779,0)" xlink:href="#aj"/><use transform="matrix(0.008680555555555556,0,0,0.008680555555555556,24.131944444444446,0)" xlink:href="#au"/><use transform="matrix(0.008680555555555556,0,0,0.008680555555555556,35.80729166666667,0)" xlink:href="#ay"/><use transform="matrix(0.008680555555555556,0,0,0.008680555555555556,48.95833333333334,0)" xlink:href="#ao"/><use transform="matrix(0.008680555555555556,0,0,0.008680555555555556,59.75694444444446,0)" xlink:href="#am"/><use transform="matrix(0.008680555555555556,0,0,0.008680555555555556,68.81944444444446,0)" xlink:href="#az"/><use transform="matrix(0.008680555555555556,0,0,0.008680555555555556,85.38194444444446,0)" xlink:href="#aj"/><use transform="matrix(0.008680555555555556,0,0,0.008680555555555556,99.07986111111113,0)" xlink:href="#an"/><use transform="matrix(0.008680555555555556,0,0,0.008680555555555556,111.9184027777778,0)" xlink:href="#ao"/><use transform="matrix(0.008680555555555556,0,0,0.008680555555555556,122.71701388888891,0)" xlink:href="#am"/><use transform="matrix(0.008680555555555556,0,0,0.008680555555555556,131.18055555555557,0)" xlink:href="#ar"/><use transform="matrix(0.008680555555555556,0,0,0.008680555555555556,142.82118055555557,0)" xlink:href="#as"/></g><path fill="#333" d="M440-1490V0H135v-1490h305" id="aA"/><path fill="#333" d="M135 0v-1490h591c327 0 492 160 492 383 0 177-115 286-268 320v15c168 8 326 140 326 361 0 236-176 411-512 411H135zm305-251h264c179 0 258-76 258-189 0-125-97-215-250-215H440v404zm0-613h241c131 0 228-74 228-194 0-109-79-183-222-183H440v377" id="aB"/><g id="g"><use transform="matrix(0.008680555555555556,0,0,0.008680555555555556,0,0)" xlink:href="#ar"/><use transform="matrix(0.008680555555555556,0,0,0.008680555555555556,11.640625,0)" xlink:href="#aA"/><use transform="matrix(0.008680555555555556,0,0,0.008680555555555556,16.631944444444443,0)" xlink:href="#ak"/><use transform="matrix(0.008680555555555556,0,0,0.008680555555555556,30.182291666666664,0)" xlink:href="#al"/><use transform="matrix(0.008680555555555556,0,0,0.008680555555555556,43.52430555555556,0)" xlink:href="#ai"/><use transform="matrix(0.008680555555555556,0,0,0.008680555555555556,53.57638888888889,0)" xlink:href="#ao"/><use transform="matrix(0.008680555555555556,0,0,0.008680555555555556,64.375,0)" xlink:href="#am"/><use transform="matrix(0.008680555555555556,0,0,0.008680555555555556,73.4375,0)" xlink:href="#aB"/><use transform="matrix(0.008680555555555556,0,0,0.008680555555555556,84.19270833333334,0)" xlink:href="#av"/><use transform="matrix(0.008680555555555556,0,0,0.008680555555555556,96.05902777777779,0)" xlink:href="#ak"/><use transform="matrix(0.008680555555555556,0,0,0.008680555555555556,109.93055555555557,0)" xlink:href="#am"/><use transform="matrix(0.008680555555555556,0,0,0.008680555555555556,118.39409722222224,0)" xlink:href="#ar"/><use transform="matrix(0.008680555555555556,0,0,0.008680555555555556,130.03472222222223,0)" xlink:href="#as"/></g><g id="h"><use transform="matrix(0.013020833333333334,0,0,0.013020833333333334,0,0)" xlink:href="#ae"/><use transform="matrix(0.013020833333333334,0,0,0.013020833333333334,17.109375,0)" xlink:href="#ab"/><use transform="matrix(0.013020833333333334,0,0,0.013020833333333334,32.65625,0)" xlink:href="#ad"/></g><g id="i"><use transform="matrix(0.013020833333333334,0,0,0.013020833333333334,0,0)" xlink:href="#ae"/><use transform="matrix(0.013020833333333334,0,0,0.013020833333333334,17.109375,0)" xlink:href="#ad"/><use transform="matrix(0.013020833333333334,0,0,0.013020833333333334,25.572916666666664,0)" xlink:href="#ag"/><use transform="matrix(0.013020833333333334,0,0,0.013020833333333334,41.5625,0)" xlink:href="#ah"/><use transform="matrix(0.013020833333333334,0,0,0.013020833333333334,51.158854166666664,0)" xlink:href="#ab"/></g><path d="M180 0v-1490h901v168H370v510h643v168H370V0H180" id="aC"/><path d="M338-1490V0H158v-1490h180" id="aD"/><path d="M471 26C259 26 90-98 90-318c0-256 228-303 435-329 202-27 287-16 287-108 0-139-79-219-234-219-161 0-248 86-283 164l-173-57c86-203 278-265 451-265 150 0 419 46 419 395V0H815v-152h-12C765-73 660 26 471 26zm31-159c199 0 310-134 310-271v-155c-30 35-226 55-295 64-131 17-246 59-246 186 0 116 97 176 231 176" id="aE"/><path d="M611 442c-248 0-391-105-460-228l146-94c47 65 117 165 314 165 178 0 307-82 307-266v-224h-17C863-141 792-18 576-18c-268 0-472-195-472-546 0-346 197-568 476-568 216 0 288 133 326 193h17v-179h175V29c0 289-215 413-487 413zm-5-620c203 0 314-146 314-390 0-237-108-403-314-403-213 0-319 180-319 403 0 230 109 390 319 390" id="aF"/><g id="j"><use transform="matrix(0.013020833333333334,0,0,0.013020833333333334,0,0)" xlink:href="#aC"/><use transform="matrix(0.013020833333333334,0,0,0.013020833333333334,15.7421875,0)" xlink:href="#aD"/><use transform="matrix(0.013020833333333334,0,0,0.013020833333333334,22.200520833333336,0)" xlink:href="#aE"/><use transform="matrix(0.013020833333333334,0,0,0.013020833333333334,37.17447916666667,0)" xlink:href="#aF"/></g><path fill="#333" d="M233-870l-31-620h289l-30 620H233" id="aG"/><g id="k"><use transform="matrix(0.008680555555555556,0,0,0.008680555555555556,0,0)" xlink:href="#ax"/><use transform="matrix(0.008680555555555556,0,0,0.008680555555555556,10.434027777777779,0)" xlink:href="#aj"/><use transform="matrix(0.008680555555555556,0,0,0.008680555555555556,24.131944444444446,0)" xlink:href="#au"/><use transform="matrix(0.008680555555555556,0,0,0.008680555555555556,35.80729166666667,0)" xlink:href="#ay"/><use transform="matrix(0.008680555555555556,0,0,0.008680555555555556,48.95833333333334,0)" xlink:href="#ao"/><use transform="matrix(0.008680555555555556,0,0,0.008680555555555556,59.75694444444446,0)" xlink:href="#am"/><use transform="matrix(0.008680555555555556,0,0,0.008680555555555556,68.81944444444446,0)" xlink:href="#az"/><use transform="matrix(0.008680555555555556,0,0,0.008680555555555556,85.38194444444446,0)" xlink:href="#aj"/><use transform="matrix(0.008680555555555556,0,0,0.008680555555555556,99.07986111111113,0)" xlink:href="#an"/><use transform="matrix(0.008680555555555556,0,0,0.008680555555555556,111.9184027777778,0)" xlink:href="#ao"/><use transform="matrix(0.008680555555555556,0,0,0.008680555555555556,122.71701388888891,0)" xlink:href="#am"/><use transform="matrix(0.008680555555555556,0,0,0.008680555555555556,131.18055555555557,0)" xlink:href="#ar"/><use transform="matrix(0.008680555555555556,0,0,0.008680555555555556,142.82118055555557,0)" xlink:href="#as"/><use transform="matrix(0.008680555555555556,0,0,0.008680555555555556,161.26736111111114,0)" xlink:href="#aG"/></g><g id="l"><use transform="matrix(0.008680555555555556,0,0,0.008680555555555556,0,0)" xlink:href="#ar"/><use transform="matrix(0.008680555555555556,0,0,0.008680555555555556,11.640625,0)" xlink:href="#at"/><use transform="matrix(0.008680555555555556,0,0,0.008680555555555556,24.921875,0)" xlink:href="#aj"/><use transform="matrix(0.008680555555555556,0,0,0.008680555555555556,38.61979166666667,0)" xlink:href="#au"/><use transform="matrix(0.008680555555555556,0,0,0.008680555555555556,50.29513888888889,0)" xlink:href="#av"/><use transform="matrix(0.008680555555555556,0,0,0.008680555555555556,61.15451388888889,0)" xlink:href="#am"/><use transform="matrix(0.008680555555555556,0,0,0.008680555555555556,70.2170138888889,0)" xlink:href="#an"/><use transform="matrix(0.008680555555555556,0,0,0.008680555555555556,83.05555555555557,0)" xlink:href="#ao"/><use transform="matrix(0.008680555555555556,0,0,0.008680555555555556,93.85416666666669,0)" xlink:href="#ai"/><use transform="matrix(0.008680555555555556,0,0,0.008680555555555556,103.90625000000001,0)" xlink:href="#ap"/><use transform="matrix(0.008680555555555556,0,0,0.008680555555555556,115.78125000000001,0)" xlink:href="#aq"/><use transform="matrix(0.008680555555555556,0,0,0.008680555555555556,128.77604166666669,0)" xlink:href="#am"/><use transform="matrix(0.008680555555555556,0,0,0.008680555555555556,137.23958333333334,0)" xlink:href="#ar"/><use transform="matrix(0.008680555555555556,0,0,0.008680555555555556,148.88020833333334,0)" xlink:href="#as"/></g><path fill="#333" d="M750 21c-371 0-615-218-615-544v-967h305v942c0 174 123 299 310 299s309-125 309-299v-942h306v967c0 326-247 544-615 544" id="aH"/><g id="m"><use transform="matrix(0.008680555555555556,0,0,0.008680555555555556,0,0)" xlink:href="#aB"/><use transform="matrix(0.008680555555555556,0,0,0.008680555555555556,11.762152777777779,0)" xlink:href="#aH"/><use transform="matrix(0.008680555555555556,0,0,0.008680555555555556,24.774305555555557,0)" xlink:href="#ar"/><use transform="matrix(0.008680555555555556,0,0,0.008680555555555556,36.41493055555556,0)" xlink:href="#aq"/><use transform="matrix(0.008680555555555556,0,0,0.008680555555555556,49.409722222222236,0)" xlink:href="#am"/><use transform="matrix(0.008680555555555556,0,0,0.008680555555555556,57.8732638888889,0)" xlink:href="#ar"/><use transform="matrix(0.008680555555555556,0,0,0.008680555555555556,69.5138888888889,0)" xlink:href="#as"/></g><path d="M458 0L52-1490h194c108 439 233 855 324 1313 92-459 221-873 331-1313h216c110 438 234 854 330 1307 92-455 216-869 323-1307h196L1558 0h-221l-256-944c-26-95-50-200-73-331-22 122-44 223-73 331L680 0H458" id="aI"/><path d="M158 0v-1118h180V0H158zm91-1301c-68 0-125-53-125-119s57-119 125-119c69 0 126 53 126 119s-57 119-126 119" id="aJ"/><g id="n"><use transform="matrix(0.013020833333333334,0,0,0.013020833333333334,0,0)" xlink:href="#aI"/><use transform="matrix(0.013020833333333334,0,0,0.013020833333333334,25.377604166666668,0)" xlink:href="#ah"/><use transform="matrix(0.013020833333333334,0,0,0.013020833333333334,35.833333333333336,0)" xlink:href="#aJ"/><use transform="matrix(0.013020833333333334,0,0,0.013020833333333334,42.29166666666667,0)" xlink:href="#ad"/><use transform="matrix(0.013020833333333334,0,0,0.013020833333333334,50.75520833333334,0)" xlink:href="#ab"/></g><path d="M98-1322v-168h1126v168H757V0H567v-1322H98" id="aK"/><g id="o"><use transform="matrix(0.013020833333333334,0,0,0.013020833333333334,0,0)" xlink:href="#aK"/><use transform="matrix(0.013020833333333334,0,0,0.013020833333333334,15.703125,0)" xlink:href="#ah"/><use transform="matrix(0.013020833333333334,0,0,0.013020833333333334,26.158854166666668,0)" xlink:href="#aJ"/><use transform="matrix(0.013020833333333334,0,0,0.013020833333333334,32.6171875,0)" xlink:href="#aF"/><use transform="matrix(0.013020833333333334,0,0,0.013020833333333334,48.97135416666667,0)" xlink:href="#aF"/><use transform="matrix(0.013020833333333334,0,0,0.013020833333333334,65.32552083333334,0)" xlink:href="#ab"/><use transform="matrix(0.013020833333333334,0,0,0.013020833333333334,80.87239583333334,0)" xlink:href="#ah"/></g><path d="M783 20c-382 0-661-292-661-764 0-473 279-766 661-766 302 0 548 182 601 489h-190c-42-204-217-313-411-313-268 0-476 208-476 590 0 381 209 588 476 588 195 0 369-110 411-313h190c-52 303-296 489-601 489" id="aL"/><path d="M180 0v-1490h190v644h782v-644h190V0h-190v-678H370V0H180" id="aM"/><path d="M154 0v-137l495-537c165-179 249-281 249-418 0-156-121-253-280-253-170 0-278 110-278 278H158c0-264 200-443 465-443 266 0 455 183 455 416 0 161-73 288-336 568L416-179v12h687V0H154" id="aN"/><g id="p"><use transform="matrix(0.013020833333333334,0,0,0.013020833333333334,0,0)" xlink:href="#aL"/><use transform="matrix(0.013020833333333334,0,0,0.013020833333333334,19.479166666666668,0)" xlink:href="#aM"/><use transform="matrix(0.013020833333333334,0,0,0.013020833333333334,39.296875,0)" xlink:href="#aN"/></g><path d="M180 0v-1490h528c311 0 458 177 458 395 0 191-114 278-244 313v14c139 9 302 137 302 371 0 225-148 397-499 397H180zm190-168h350c232 0 321-102 321-231 0-149-120-277-311-277H370v508zm0-668h328c160 0 286-101 286-255 0-129-87-231-280-231H370v486" id="aO"/><path d="M52 0l541-1490h220L1361 0h-200l-149-416H398L254 0H52zm404-582h497c-103-290-145-390-251-756-108 377-145 460-246 756" id="aP"/><path d="M180 0v-1490h270l367 940c28 72 75 218 110 339 35-117 81-264 110-339l362-940h271V0h-187c2-448-5-837 7-1287-157 497-311 829-483 1287H842C666-458 514-784 354-1284c12 438 5 843 7 1284H180" id="aQ"/><g id="q"><use transform="matrix(0.013020833333333334,0,0,0.013020833333333334,0,0)" xlink:href="#aO"/><use transform="matrix(0.013020833333333334,0,0,0.013020833333333334,17.447916666666668,0)" xlink:href="#aa"/><use transform="matrix(0.013020833333333334,0,0,0.013020833333333334,34.609375,0)" xlink:href="#aP"/><use transform="matrix(0.013020833333333334,0,0,0.013020833333333334,53.0078125,0)" xlink:href="#aQ"/></g><g id="r"><use transform="matrix(0.008680555555555556,0,0,0.008680555555555556,0,0)" xlink:href="#aB"/><use transform="matrix(0.008680555555555556,0,0,0.008680555555555556,11.762152777777779,0)" xlink:href="#aH"/><use transform="matrix(0.008680555555555556,0,0,0.008680555555555556,24.774305555555557,0)" xlink:href="#ar"/><use transform="matrix(0.008680555555555556,0,0,0.008680555555555556,36.41493055555556,0)" xlink:href="#aq"/><use transform="matrix(0.008680555555555556,0,0,0.008680555555555556,49.409722222222236,0)" xlink:href="#am"/><use transform="matrix(0.008680555555555556,0,0,0.008680555555555556,57.8732638888889,0)" xlink:href="#ar"/><use transform="matrix(0.008680555555555556,0,0,0.008680555555555556,69.5138888888889,0)" xlink:href="#as"/><use transform="matrix(0.008680555555555556,0,0,0.008680555555555556,87.96006944444446,0)" xlink:href="#aG"/></g><g id="s"><use transform="matrix(0.008680555555555556,0,0,0.008680555555555556,0,0)" xlink:href="#ar"/><use transform="matrix(0.008680555555555556,0,0,0.008680555555555556,11.640625,0)" xlink:href="#av"/><use transform="matrix(0.008680555555555556,0,0,0.008680555555555556,22.942708333333336,0)" xlink:href="#aj"/><use transform="matrix(0.008680555555555556,0,0,0.008680555555555556,36.640625,0)" xlink:href="#au"/><use transform="matrix(0.008680555555555556,0,0,0.008680555555555556,48.31597222222222,0)" xlink:href="#ao"/><use transform="matrix(0.008680555555555556,0,0,0.008680555555555556,59.11458333333333,0)" xlink:href="#am"/><use transform="matrix(0.008680555555555556,0,0,0.008680555555555556,68.17708333333333,0)" xlink:href="#ax"/><use transform="matrix(0.008680555555555556,0,0,0.008680555555555556,78.61111111111111,0)" xlink:href="#ai"/><use transform="matrix(0.008680555555555556,0,0,0.008680555555555556,88.66319444444444,0)" xlink:href="#ap"/><use transform="matrix(0.008680555555555556,0,0,0.008680555555555556,101.18923611111111,0)" xlink:href="#al"/><use transform="matrix(0.008680555555555556,0,0,0.008680555555555556,114.53125,0)" xlink:href="#am"/><use transform="matrix(0.008680555555555556,0,0,0.008680555555555556,122.99479166666667,0)" xlink:href="#ar"/><use transform="matrix(0.008680555555555556,0,0,0.008680555555555556,134.63541666666669,0)" xlink:href="#as"/><use transform="matrix(0.008680555555555556,0,0,0.008680555555555556,153.08159722222223,0)" xlink:href="#aG"/></g><g id="t"><use transform="matrix(0.008680555555555556,0,0,0.008680555555555556,0,0)" xlink:href="#ar"/><use transform="matrix(0.008680555555555556,0,0,0.008680555555555556,11.640625,0)" xlink:href="#av"/><use transform="matrix(0.008680555555555556,0,0,0.008680555555555556,22.942708333333336,0)" xlink:href="#aj"/><use transform="matrix(0.008680555555555556,0,0,0.008680555555555556,36.640625,0)" xlink:href="#au"/><use transform="matrix(0.008680555555555556,0,0,0.008680555555555556,48.31597222222222,0)" xlink:href="#ao"/><use transform="matrix(0.008680555555555556,0,0,0.008680555555555556,59.11458333333333,0)" xlink:href="#am"/><use transform="matrix(0.008680555555555556,0,0,0.008680555555555556,68.17708333333333,0)" xlink:href="#ax"/><use transform="matrix(0.008680555555555556,0,0,0.008680555555555556,78.61111111111111,0)" xlink:href="#ai"/><use transform="matrix(0.008680555555555556,0,0,0.008680555555555556,88.66319444444444,0)" xlink:href="#ap"/><use transform="matrix(0.008680555555555556,0,0,0.008680555555555556,101.18923611111111,0)" xlink:href="#al"/><use transform="matrix(0.008680555555555556,0,0,0.008680555555555556,114.53125,0)" xlink:href="#am"/><use transform="matrix(0.008680555555555556,0,0,0.008680555555555556,122.99479166666667,0)" xlink:href="#ar"/><use transform="matrix(0.008680555555555556,0,0,0.008680555555555556,134.63541666666669,0)" xlink:href="#as"/></g><g id="u"><use transform="matrix(0.013020833333333334,0,0,0.013020833333333334,0,0)" xlink:href="#ae"/><use transform="matrix(0.013020833333333334,0,0,0.013020833333333334,17.109375,0)" xlink:href="#ab"/><use transform="matrix(0.013020833333333334,0,0,0.013020833333333334,32.65625,0)" xlink:href="#ad"/></g><path d="M537 14c-226 0-379-139-379-422v-710h180v695c0 172 97 275 253 275 160 0 281-109 281-300v-670h181V0H879v-209C806-46 684 14 537 14" id="aR"/><g id="v"><use transform="matrix(0.013020833333333334,0,0,0.013020833333333334,0,0)" xlink:href="#aC"/><use transform="matrix(0.013020833333333334,0,0,0.013020833333333334,14.84375,0)" xlink:href="#aR"/><use transform="matrix(0.013020833333333334,0,0,0.013020833333333334,30.611979166666668,0)" xlink:href="#aD"/><use transform="matrix(0.013020833333333334,0,0,0.013020833333333334,37.0703125,0)" xlink:href="#aD"/></g><g id="w"><use transform="matrix(0.013020833333333334,0,0,0.013020833333333334,0,0)" xlink:href="#aC"/><use transform="matrix(0.013020833333333334,0,0,0.013020833333333334,15.7421875,0)" xlink:href="#aD"/><use transform="matrix(0.013020833333333334,0,0,0.013020833333333334,22.200520833333336,0)" xlink:href="#aE"/><use transform="matrix(0.013020833333333334,0,0,0.013020833333333334,37.17447916666667,0)" xlink:href="#aF"/></g><path fill="#333" d="M135 0v-1490h581c339 0 533 210 533 503 0 295-197 500-540 500H440V0H135zm305-733h220c186 0 274-104 274-254s-88-251-275-251H440v505" id="aS"/><g id="x"><use transform="matrix(0.008680555555555556,0,0,0.008680555555555556,0,0)" xlink:href="#ar"/><use transform="matrix(0.008680555555555556,0,0,0.008680555555555556,11.371527777777779,0)" xlink:href="#ap"/><use transform="matrix(0.008680555555555556,0,0,0.008680555555555556,24.644097222222225,0)" xlink:href="#az"/><use transform="matrix(0.008680555555555556,0,0,0.008680555555555556,41.20659722222222,0)" xlink:href="#aS"/><use transform="matrix(0.008680555555555556,0,0,0.008680555555555556,52.72569444444445,0)" xlink:href="#ai"/><use transform="matrix(0.008680555555555556,0,0,0.008680555555555556,62.77777777777778,0)" xlink:href="#ao"/><use transform="matrix(0.008680555555555556,0,0,0.008680555555555556,73.57638888888889,0)" xlink:href="#am"/><use transform="matrix(0.008680555555555556,0,0,0.008680555555555556,82.03993055555556,0)" xlink:href="#ar"/><use transform="matrix(0.008680555555555556,0,0,0.008680555555555556,93.68055555555556,0)" xlink:href="#as"/></g><g id="y"><use transform="matrix(0.008680555555555556,0,0,0.008680555555555556,0,0)" xlink:href="#ax"/><use transform="matrix(0.008680555555555556,0,0,0.008680555555555556,10.434027777777779,0)" xlink:href="#aH"/><use transform="matrix(0.008680555555555556,0,0,0.008680555555555556,23.446180555555557,0)" xlink:href="#ai"/><use transform="matrix(0.008680555555555556,0,0,0.008680555555555556,33.49826388888889,0)" xlink:href="#ai"/><use transform="matrix(0.008680555555555556,0,0,0.008680555555555556,43.55034722222223,0)" xlink:href="#am"/><use transform="matrix(0.008680555555555556,0,0,0.008680555555555556,52.612847222222236,0)" xlink:href="#ax"/><use transform="matrix(0.008680555555555556,0,0,0.008680555555555556,63.046875000000014,0)" xlink:href="#ai"/><use transform="matrix(0.008680555555555556,0,0,0.008680555555555556,73.09895833333334,0)" xlink:href="#ap"/><use transform="matrix(0.008680555555555556,0,0,0.008680555555555556,85.62500000000001,0)" xlink:href="#al"/><use transform="matrix(0.008680555555555556,0,0,0.008680555555555556,98.9670138888889,0)" xlink:href="#am"/><use transform="matrix(0.008680555555555556,0,0,0.008680555555555556,107.43055555555557,0)" xlink:href="#ar"/><use transform="matrix(0.008680555555555556,0,0,0.008680555555555556,119.07118055555557,0)" xlink:href="#as"/></g><g id="z"><use transform="matrix(0.013020833333333334,0,0,0.013020833333333334,0,0)" xlink:href="#aI"/><use transform="matrix(0.013020833333333334,0,0,0.013020833333333334,24.921875,0)" xlink:href="#aE"/><use transform="matrix(0.013020833333333334,0,0,0.013020833333333334,39.895833333333336,0)" xlink:href="#aJ"/><use transform="matrix(0.013020833333333334,0,0,0.013020833333333334,46.35416666666667,0)" xlink:href="#ad"/></g><g id="A"><use transform="matrix(0.008680555555555556,0,0,0.008680555555555556,0,0)" xlink:href="#ax"/><use transform="matrix(0.008680555555555556,0,0,0.008680555555555556,10.434027777777779,0)" xlink:href="#aj"/><use transform="matrix(0.008680555555555556,0,0,0.008680555555555556,24.131944444444446,0)" xlink:href="#au"/><use transform="matrix(0.008680555555555556,0,0,0.008680555555555556,35.80729166666667,0)" xlink:href="#ay"/><use transform="matrix(0.008680555555555556,0,0,0.008680555555555556,48.95833333333334,0)" xlink:href="#ao"/><use transform="matrix(0.008680555555555556,0,0,0.008680555555555556,59.75694444444446,0)" xlink:href="#am"/><use transform="matrix(0.008680555555555556,0,0,0.008680555555555556,68.81944444444446,0)" xlink:href="#az"/><use transform="matrix(0.008680555555555556,0,0,0.008680555555555556,85.38194444444446,0)" xlink:href="#aj"/><use transform="matrix(0.008680555555555556,0,0,0.008680555555555556,99.07986111111113,0)" xlink:href="#an"/><use transform="matrix(0.008680555555555556,0,0,0.008680555555555556,111.9184027777778,0)" xlink:href="#ao"/><use transform="matrix(0.008680555555555556,0,0,0.008680555555555556,122.71701388888891,0)" xlink:href="#am"/><use transform="matrix(0.008680555555555556,0,0,0.008680555555555556,131.18055555555557,0)" xlink:href="#ar"/><use transform="matrix(0.008680555555555556,0,0,0.008680555555555556,142.82118055555557,0)" xlink:href="#as"/><use transform="matrix(0.008680555555555556,0,0,0.008680555555555556,161.26736111111114,0)" xlink:href="#aG"/></g><use transform="matrix(0.008680555555555556,0,0,0.008680555555555556,0,0)" xlink:href="#aw" id="B"/><g id="C"><use transform="matrix(0.008680555555555556,0,0,0.008680555555555556,0,0)" xlink:href="#ar"/><use transform="matrix(0.008680555555555556,0,0,0.008680555555555556,11.640625,0)" xlink:href="#av"/><use transform="matrix(0.008680555555555556,0,0,0.008680555555555556,22.942708333333336,0)" xlink:href="#aj"/><use transform="matrix(0.008680555555555556,0,0,0.008680555555555556,36.640625,0)" xlink:href="#au"/><use transform="matrix(0.008680555555555556,0,0,0.008680555555555556,48.31597222222222,0)" xlink:href="#am"/><use transform="matrix(0.008680555555555556,0,0,0.008680555555555556,57.37847222222222,0)" xlink:href="#ax"/><use transform="matrix(0.008680555555555556,0,0,0.008680555555555556,67.8125,0)" xlink:href="#ai"/><use transform="matrix(0.008680555555555556,0,0,0.008680555555555556,77.86458333333331,0)" xlink:href="#ap"/><use transform="matrix(0.008680555555555556,0,0,0.008680555555555556,90.390625,0)" xlink:href="#al"/><use transform="matrix(0.008680555555555556,0,0,0.008680555555555556,103.7326388888889,0)" xlink:href="#am"/><use transform="matrix(0.008680555555555556,0,0,0.008680555555555556,112.19618055555556,0)" xlink:href="#ar"/><use transform="matrix(0.008680555555555556,0,0,0.008680555555555556,123.83680555555556,0)" xlink:href="#as"/><use transform="matrix(0.008680555555555556,0,0,0.008680555555555556,142.28298611111111,0)" xlink:href="#aG"/></g><use transform="matrix(0.008680555555555556,0,0,0.008680555555555556,0,0)" xlink:href="#aw" id="D"/><g id="E"><use transform="matrix(0.008680555555555556,0,0,0.008680555555555556,0,0)" xlink:href="#av"/><use transform="matrix(0.008680555555555556,0,0,0.008680555555555556,11.866319444444445,0)" xlink:href="#au"/><use transform="matrix(0.008680555555555556,0,0,0.008680555555555556,23.541666666666668,0)" xlink:href="#aA"/><use transform="matrix(0.008680555555555556,0,0,0.008680555555555556,28.53298611111111,0)" xlink:href="#al"/><use transform="matrix(0.008680555555555556,0,0,0.008680555555555556,41.875,0)" xlink:href="#al"/><use transform="matrix(0.008680555555555556,0,0,0.008680555555555556,55.217013888888886,0)" xlink:href="#ao"/><use transform="matrix(0.008680555555555556,0,0,0.008680555555555556,66.015625,0)" xlink:href="#au"/><use transform="matrix(0.008680555555555556,0,0,0.008680555555555556,77.69097222222223,0)" xlink:href="#am"/><use transform="matrix(0.008680555555555556,0,0,0.008680555555555556,86.15451388888889,0)" xlink:href="#ar"/><use transform="matrix(0.008680555555555556,0,0,0.008680555555555556,97.7951388888889,0)" xlink:href="#as"/></g><path d="M338-670V0H158v-1118h173l1 207c72-158 192-221 342-221 226 0 378 139 378 422V0H872v-695c0-172-96-275-252-275-161 0-282 109-282 300" id="aT"/><g id="F"><use transform="matrix(0.013020833333333334,0,0,0.013020833333333334,0,0)" xlink:href="#aO"/><use transform="matrix(0.013020833333333334,0,0,0.013020833333333334,17.447916666666668,0)" xlink:href="#ab"/><use transform="matrix(0.013020833333333334,0,0,0.013020833333333334,32.99479166666667,0)" xlink:href="#aF"/><use transform="matrix(0.013020833333333334,0,0,0.013020833333333334,49.34895833333334,0)" xlink:href="#aJ"/><use transform="matrix(0.013020833333333334,0,0,0.013020833333333334,55.80729166666668,0)" xlink:href="#aT"/></g><path d="M481 0L54-1118h197c107 314 236 620 325 951 87-331 217-637 324-951h197L670 0H481" id="aU"/><g id="G"><use transform="matrix(0.013020833333333334,0,0,0.013020833333333334,0,0)" xlink:href="#aL"/><use transform="matrix(0.013020833333333334,0,0,0.013020833333333334,19.479166666666668,0)" xlink:href="#ag"/><use transform="matrix(0.013020833333333334,0,0,0.013020833333333334,35.46875,0)" xlink:href="#aT"/><use transform="matrix(0.013020833333333334,0,0,0.013020833333333334,50.833333333333336,0)" xlink:href="#aU"/><use transform="matrix(0.013020833333333334,0,0,0.013020833333333334,65.29947916666667,0)" xlink:href="#ab"/><use transform="matrix(0.013020833333333334,0,0,0.013020833333333334,80.84635416666667,0)" xlink:href="#ah"/><use transform="matrix(0.013020833333333334,0,0,0.013020833333333334,90.88541666666667,0)" xlink:href="#ac"/><use transform="matrix(0.013020833333333334,0,0,0.013020833333333334,104.9609375,0)" xlink:href="#aJ"/><use transform="matrix(0.013020833333333334,0,0,0.013020833333333334,111.41927083333334,0)" xlink:href="#ag"/><use transform="matrix(0.013020833333333334,0,0,0.013020833333333334,127.40885416666664,0)" xlink:href="#aT"/></g><g id="H"><use transform="matrix(0.013020833333333334,0,0,0.013020833333333334,0,0)" xlink:href="#aL"/><use transform="matrix(0.013020833333333334,0,0,0.013020833333333334,19.479166666666668,0)" xlink:href="#aD"/><use transform="matrix(0.013020833333333334,0,0,0.013020833333333334,25.9375,0)" xlink:href="#ab"/><use transform="matrix(0.013020833333333334,0,0,0.013020833333333334,41.74479166666667,0)" xlink:href="#aE"/><use transform="matrix(0.013020833333333334,0,0,0.013020833333333334,56.71875,0)" xlink:href="#ah"/></g><g id="I"><use transform="matrix(0.013020833333333334,0,0,0.013020833333333334,0,0)" xlink:href="#aI"/><use transform="matrix(0.013020833333333334,0,0,0.013020833333333334,24.921875,0)" xlink:href="#aE"/><use transform="matrix(0.013020833333333334,0,0,0.013020833333333334,39.895833333333336,0)" xlink:href="#aJ"/><use transform="matrix(0.013020833333333334,0,0,0.013020833333333334,46.35416666666667,0)" xlink:href="#ad"/></g><path d="M158 0v-1118h175l1 205c55-151 181-225 313-225 147 0 245 90 285 228 53-141 190-228 352-228 194 0 352 125 352 384V0h-181v-749c0-161-105-225-225-225-151 0-243 103-243 244V0H807v-767c0-124-93-207-219-207-131 0-250 92-250 270V0H158" id="aV"/><path d="M158 418v-1536h174v179h20c37-59 106-193 324-193 279 0 474 222 474 576 0 356-194 580-473 580-213 0-288-135-325-197h-14v591H158zm492-555c209 0 317-186 317-421 0-232-105-413-317-413-206 0-314 166-314 413 0 249 111 421 314 421" id="aW"/><g id="J"><use transform="matrix(0.013020833333333334,0,0,0.013020833333333334,0,0)" xlink:href="#ae"/><use transform="matrix(0.013020833333333334,0,0,0.013020833333333334,17.109375,0)" xlink:href="#aE"/><use transform="matrix(0.013020833333333334,0,0,0.013020833333333334,32.083333333333336,0)" xlink:href="#aV"/><use transform="matrix(0.013020833333333334,0,0,0.013020833333333334,55.442708333333336,0)" xlink:href="#aW"/><use transform="matrix(0.013020833333333334,0,0,0.013020833333333334,71.77083333333334,0)" xlink:href="#aD"/><use transform="matrix(0.013020833333333334,0,0,0.013020833333333334,78.22916666666667,0)" xlink:href="#ab"/></g><path d="M370-1490V0H180v-1490h190" id="aX"/><g id="K"><use transform="matrix(0.013020833333333334,0,0,0.013020833333333334,0,0)" xlink:href="#aX"/><use transform="matrix(0.013020833333333334,0,0,0.013020833333333334,7.161458333333334,0)" xlink:href="#aT"/><use transform="matrix(0.013020833333333334,0,0,0.013020833333333334,22.916666666666668,0)" xlink:href="#ad"/><use transform="matrix(0.013020833333333334,0,0,0.013020833333333334,31.380208333333336,0)" xlink:href="#ab"/><use transform="matrix(0.013020833333333334,0,0,0.013020833333333334,46.927083333333336,0)" xlink:href="#ah"/><use transform="matrix(0.013020833333333334,0,0,0.013020833333333334,57.3828125,0)" xlink:href="#aU"/><use transform="matrix(0.013020833333333334,0,0,0.013020833333333334,72.23958333333333,0)" xlink:href="#aE"/><use transform="matrix(0.013020833333333334,0,0,0.013020833333333334,87.21354166666666,0)" xlink:href="#aD"/></g><path d="M577 24c-279 0-473-224-473-580 0-354 195-576 474-576 218 0 287 134 324 193h14v-551h180V0H922v-173h-20C865-111 790 24 577 24zm27-161c203 0 314-172 314-421 0-247-108-413-314-413-212 0-317 181-317 413 0 235 108 421 317 421" id="aY"/><g id="L"><use transform="matrix(0.013020833333333334,0,0,0.013020833333333334,0,0)" xlink:href="#aa"/><use transform="matrix(0.013020833333333334,0,0,0.013020833333333334,16.770833333333336,0)" xlink:href="#ab"/><use transform="matrix(0.013020833333333334,0,0,0.013020833333333334,32.578125,0)" xlink:href="#aE"/><use transform="matrix(0.013020833333333334,0,0,0.013020833333333334,47.552083333333336,0)" xlink:href="#aY"/></g><g id="M"><use transform="matrix(0.013020833333333334,0,0,0.013020833333333334,0,0)" xlink:href="#aL"/><use transform="matrix(0.013020833333333334,0,0,0.013020833333333334,19.479166666666668,0)" xlink:href="#aM"/><use transform="matrix(0.013020833333333334,0,0,0.013020833333333334,39.296875,0)" xlink:href="#aN"/></g><g id="N"><use transform="matrix(0.013020833333333334,0,0,0.013020833333333334,0,0)" xlink:href="#aM"/><use transform="matrix(0.013020833333333334,0,0,0.013020833333333334,19.817708333333336,0)" xlink:href="#aJ"/><use transform="matrix(0.013020833333333334,0,0,0.013020833333333334,26.27604166666667,0)" xlink:href="#aF"/><use transform="matrix(0.013020833333333334,0,0,0.013020833333333334,42.63020833333334,0)" xlink:href="#af"/></g><path d="M180 0v-1490h190v1322h690V0H180" id="aZ"/><path d="M409 0L70-1118h191c89 329 165 560 243 925 75-353 154-601 240-925h192c85 325 161 564 235 922 77-354 157-598 244-922h191L1267 0h-179c-86-307-176-590-250-913C763-588 675-308 588 0H409" id="ba"/><g id="O"><use transform="matrix(0.013020833333333334,0,0,0.013020833333333334,0,0)" xlink:href="#aZ"/><use transform="matrix(0.013020833333333334,0,0,0.013020833333333334,15.078125,0)" xlink:href="#ag"/><use transform="matrix(0.013020833333333334,0,0,0.013020833333333334,30.5859375,0)" xlink:href="#ba"/></g><g id="P"><use transform="matrix(0.013020833333333334,0,0,0.013020833333333334,0,0)" xlink:href="#aZ"/><use transform="matrix(0.013020833333333334,0,0,0.013020833333333334,15.078125,0)" xlink:href="#ag"/><use transform="matrix(0.013020833333333334,0,0,0.013020833333333334,31.067708333333336,0)" xlink:href="#aT"/><use transform="matrix(0.013020833333333334,0,0,0.013020833333333334,46.82291666666667,0)" xlink:href="#aF"/></g><path d="M645 0H180v-1490h484c435 0 692 280 692 742 0 466-257 748-711 748zM370-168h263c363 0 539-218 539-580 0-358-176-574-521-574H370v1154" id="bb"/><path d="M140 405l46-156c120 36 205 19 263-150l32-93L54-1118h197c107 313 237 620 324 950 87-331 219-637 326-950h196L606 167c-68 178-176 259-334 259-64 0-113-12-132-21" id="bc"/><g id="Q"><use transform="matrix(0.013020833333333334,0,0,0.013020833333333334,0,0)" xlink:href="#bb"/><use transform="matrix(0.013020833333333334,0,0,0.013020833333333334,19.244791666666668,0)" xlink:href="#ab"/><use transform="matrix(0.013020833333333334,0,0,0.013020833333333334,34.79166666666667,0)" xlink:href="#aD"/><use transform="matrix(0.013020833333333334,0,0,0.013020833333333334,41.25000000000001,0)" xlink:href="#aE"/><use transform="matrix(0.013020833333333334,0,0,0.013020833333333334,55.83333333333335,0)" xlink:href="#bc"/></g><path d="M653-1490V0H466v-1314h-10L96-1047v-204l324-239h233" id="bd"/><g id="R"><use transform="matrix(0.013020833333333334,0,0,0.013020833333333334,0,0)" xlink:href="#aL"/><use transform="matrix(0.013020833333333334,0,0,0.013020833333333334,19.479166666666668,0)" xlink:href="#aM"/><use transform="matrix(0.013020833333333334,0,0,0.013020833333333334,39.296875,0)" xlink:href="#bd"/></g><g id="S"><use transform="matrix(0.013020833333333334,0,0,0.013020833333333334,0,0)" xlink:href="#aL"/><use transform="matrix(0.013020833333333334,0,0,0.013020833333333334,19.479166666666668,0)" xlink:href="#aM"/><use transform="matrix(0.013020833333333334,0,0,0.013020833333333334,39.296875,0)" xlink:href="#bd"/></g><g id="T"><use transform="matrix(0.013020833333333334,0,0,0.013020833333333334,0,0)" xlink:href="#aO"/><use transform="matrix(0.013020833333333334,0,0,0.013020833333333334,17.447916666666668,0)" xlink:href="#aR"/><use transform="matrix(0.013020833333333334,0,0,0.013020833333333334,33.216145833333336,0)" xlink:href="#ac"/><use transform="matrix(0.013020833333333334,0,0,0.013020833333333334,47.29166666666667,0)" xlink:href="#bc"/></g><path d="M646 20c-332 0-524-278-524-764 0-483 194-766 524-766s524 283 524 766c0 485-191 764-524 764zm0-166c218 0 341-220 341-598 0-380-123-601-341-601s-341 222-341 601c0 378 123 598 341 598" id="be"/><use transform="matrix(0.013020833333333334,0,0,0.013020833333333334,0,0)" xlink:href="#be" id="U"/><use transform="matrix(0.013020833333333334,0,0,0.013020833333333334,0,0)" xlink:href="#bd" id="V"/><g id="W"><use transform="matrix(0.013020833333333334,0,0,0.013020833333333334,0,0)" xlink:href="#aP"/><use transform="matrix(0.013020833333333334,0,0,0.013020833333333334,18.3984375,0)" xlink:href="#ac"/><use transform="matrix(0.013020833333333334,0,0,0.013020833333333334,32.473958333333336,0)" xlink:href="#ac"/><use transform="matrix(0.013020833333333334,0,0,0.013020833333333334,46.54947916666667,0)" xlink:href="#ab"/><use transform="matrix(0.013020833333333334,0,0,0.013020833333333334,62.09635416666667,0)" xlink:href="#ah"/><use transform="matrix(0.013020833333333334,0,0,0.013020833333333334,72.55208333333334,0)" xlink:href="#ad"/></g><path d="M441-652l13-317-268 171-72-126 282-146-282-146 72-128 268 171-13-317h144l-12 317 267-171 72 128-282 146 282 146-72 126-267-171 12 317H441" id="bf"/><g id="X"><use transform="matrix(0.013020833333333334,0,0,0.013020833333333334,0,0)" xlink:href="#bf"/><use transform="matrix(0.013020833333333334,0,0,0.013020833333333334,13.359375,0)" xlink:href="#ah"/><use transform="matrix(0.013020833333333334,0,0,0.013020833333333334,22.955729166666664,0)" xlink:href="#ab"/><use transform="matrix(0.013020833333333334,0,0,0.013020833333333334,38.502604166666664,0)" xlink:href="#ac"/><use transform="matrix(0.013020833333333334,0,0,0.013020833333333334,52.578125,0)" xlink:href="#ab"/><use transform="matrix(0.013020833333333334,0,0,0.013020833333333334,68.125,0)" xlink:href="#ad"/></g><g id="Y"><use transform="matrix(0.013020833333333334,0,0,0.013020833333333334,0,0)" xlink:href="#aa"/><use transform="matrix(0.013020833333333334,0,0,0.013020833333333334,16.770833333333336,0)" xlink:href="#ab"/><use transform="matrix(0.013020833333333334,0,0,0.013020833333333334,32.317708333333336,0)" xlink:href="#ac"/><use transform="matrix(0.013020833333333334,0,0,0.013020833333333334,46.39322916666667,0)" xlink:href="#ab"/><use transform="matrix(0.013020833333333334,0,0,0.013020833333333334,61.94010416666667,0)" xlink:href="#ad"/></g><path d="M180 0v-1490h224l606 953c40 63 108 177 176 312-27-437-7-821-13-1265h190V0h-226C860-448 622-778 356-1262c27 476 11 792 15 1262H180" id="bg"/><path d="M200 0l662-1311v-12H98v-167h963v177L400 0H200" id="bh"/><path d="M646 20c-249 0-524-159-524-708 0-524 209-822 547-822 250 0 431 161 467 395H950c-33-129-126-227-281-227-229 0-367 208-367 566h12c80-124 212-198 367-198 255 0 467 205 467 493 0 278-198 501-502 501zm0-167c179 0 318-148 318-334 0-182-133-328-313-328-181 0-322 156-322 330 0 176 134 332 317 332" id="bi"/><g id="Z"><use transform="matrix(0.013020833333333334,0,0,0.013020833333333334,0,0)" xlink:href="#aP"/><use transform="matrix(0.013020833333333334,0,0,0.013020833333333334,18.3984375,0)" xlink:href="#bg"/><use transform="matrix(0.013020833333333334,0,0,0.013020833333333334,38.489583333333336,0)" xlink:href="#bh"/><use transform="matrix(0.013020833333333334,0,0,0.013020833333333334,53.16406250000001,0)" xlink:href="#bi"/><use transform="matrix(0.013020833333333334,0,0,0.013020833333333334,69.70052083333334,0)" xlink:href="#be"/><use transform="matrix(0.013020833333333334,0,0,0.013020833333333334,86.52343750000001,0)" xlink:href="#bi"/></g></defs></g></svg>